<?xml version="1.0" encoding="utf-8"?>
<!-- Generator: Adobe Illustrator 25.3.1, SVG Export Plug-In . SVG Version: 6.00 Build 0)  -->
<svg version="1.1" id="Layer_1" xmlns="http://www.w3.org/2000/svg" xmlns:xlink="http://www.w3.org/1999/xlink" x="0px" y="0px"
	 viewBox="0 0 280 280" style="enable-background:new 0 0 280 280;" xml:space="preserve">
<style type="text/css">
	.st0{clip-path:url(#SVGID_2_);fill:#E41E2D;}
	.st1{clip-path:url(#SVGID_2_);fill:#FFFFFF;}
	.st2{clip-path:url(#SVGID_2_);fill:#E2183D;}
	.st3{fill:#999999;}
	.st4{fill:#009639;}
	.st5{fill:#FFFFFF;}
</style>
<g>
	<defs>
		<rect id="SVGID_1_" width="280" height="280"/>
	</defs>
	<clipPath id="SVGID_2_">
		<use xlink:href="#SVGID_1_"  style="overflow:visible;"/>
	</clipPath>
	<path class="st0" d="M263.3,250.5c1.8,1.7,2.7,3.9,2.7,6.4c0,2.5-0.9,4.7-2.7,6.5c-1.8,1.8-3.9,2.7-6.4,2.7c-2.5,0-4.7-0.9-6.4-2.7
		c-1.7-1.8-2.6-4-2.6-6.5c0-2.5,0.9-4.7,2.6-6.4c1.8-1.8,3.9-2.7,6.4-2.7C259.4,247.8,261.5,248.7,263.3,250.5 M264.4,249.4
		c-2.1-2.1-4.6-3.1-7.5-3.1c-2.9,0-5.4,1-7.4,3.1c-2.1,2.1-3.1,4.5-3.1,7.5c0,2.9,1,5.4,3,7.5c2,2.1,4.6,3.1,7.5,3.1
		c2.9,0,5.4-1,7.5-3.1c2-2.1,3.1-4.6,3.1-7.5C267.5,253.9,266.4,251.5,264.4,249.4 M258.4,256.4c-0.4,0.2-1.1,0.3-1.9,0.3h-1.8v-4.2
		h1.7c1.1,0,2,0.2,2.5,0.4c0.5,0.3,0.8,0.9,0.8,1.7C259.6,255.5,259.2,256,258.4,256.4 M252.6,262.6h2v-4.6h1.6
		c1.1,0,1.8,0.1,2.3,0.4c0.7,0.4,1.1,1.3,1.1,2.7v0.9l0,0.3c0,0.1,0,0.1,0,0.1c0,0.1,0,0.1,0,0.1h1.9l-0.1-0.1
		c-0.1-0.1-0.1-0.3-0.1-0.6c0-0.3,0-0.6,0-0.9v-0.9c0-0.6-0.2-1.2-0.6-1.8c-0.4-0.6-1.1-1-2-1.1c0.7-0.1,1.3-0.3,1.7-0.5
		c0.8-0.5,1.1-1.3,1.1-2.3c0-1.5-0.6-2.5-1.8-2.9c-0.7-0.3-1.7-0.4-3.2-0.4h-4V262.6z"/>
	<path class="st1" d="M268.4,173.7c0.7-14.9-2-31-15-45.6c-13.4-14.4-35.9-26.6-82.2-29.5c2.4-7.5,4.5-14.4,6.7-21.4
		c27.7,1,52.4,3,73.4,5.7c1.7-7.5,2.6-14.9,4.3-22c-2.1-3.1-4.4-6.2-6.8-9.1c-10-1.2-19.9-3.7-30.7-5c-14.5-1.9-29.6-3.2-46-4
		c-10.3,30.7-23.2,69.4-36.4,109.3c68.9,6,95.5,24.5,94,50.8c-1.4,14.1-14.3,27-31.3,28.6c-20.2,1.4-29.5-6.8-35.6-15.8
		c-5.4-8.1-10.7-16.1-16.4-24.9c-1.6-2.6-3.6-0.9-5.4,0.9c-4.2,4.1-8.1,7.9-12.3,11.8c-2.7,2.3-2.1,4.3-1.1,6.2
		c3.9,9.1,7.4,17.4,11.1,25.7c6,3.7,34.4,8.8,55.6,7.2c14.4-1.2,32.4-6.8,47.2-18C256.1,213.3,266.7,197.9,268.4,173.7"/>
	<path class="st1" d="M27.2,223c2.7,3.6,5.5,7.1,8.5,10.4c23.8,4.3,53.6,7.3,84.6,8.2c-0.1-3.2-0.2-6.3-0.3-9.6
		c-19-1.1-27.8-4-29.3-7.7c-1.3-3-1.5-7.5-1.8-11.9c-1.4-29.2-1.9-60.8-1.4-92.5c10.7-0.2,21.2-0.3,32.3-0.4
		c5.4-2.5,10.5-4.9,15.8-7.3c0-3.8,0-7.3,0-11c-16.5,0.1-32.1,0.3-47.8,0.8c0.4-13.3,1-25.6,1.7-37.7c0.6-7.9,6-13.7,11.7-14.1
		c9-0.3,17.1,3.2,25,6.7c4.3,2.1,8.6,4.2,13,6.5c2.1,0.6,4.6,1.1,6.1-0.8c2.6-3.1,5.1-6,7.7-9c1.4-2.1,0.8-3.3,0.2-4
		c-5.6-4.5-10.9-8.5-16.3-12.5c-3.3-2.3-8.5-2.7-13.7-2.7c-2.1,0-4.1,0.1-6,0.1c-5.3,0.3-12,1.1-23.1,3.8
		c-24.9,6.7-54.7,24-57.9,52.4c-0.4,4.6-0.7,9.2-1,13.9c-7,0.6-13.4,1.1-19.5,1.7c-0.4,5.4-0.7,10.6-1,16.1c6.1-0.4,12.5-0.7,19.6-1
		c-1.1,29.7-0.1,59.4,2.7,86.9c0.5,4.2,0.9,8.3,0.4,11C37.3,221.7,33.2,223,27.2,223"/>
	<path class="st0" d="M255.5,61c-1.7,7.1-2.6,14.4-4.3,22c-21-2.7-45.7-4.7-73.4-5.7c-2.2,7-4.3,13.9-6.7,21.4
		c46.4,2.8,68.9,15.1,82.2,29.5c13,14.6,15.8,30.7,15,45.6c-1.7,24.3-12.4,39.6-27,51c-14.9,11.2-32.8,16.8-47.2,18
		c-21.2,1.6-49.6-3.5-55.6-7.2c-3.6-8.3-7.2-16.6-11.1-25.7c-0.9-1.9-1.5-3.9,1.1-6.2c4.1-4,8.1-7.8,12.3-11.8
		c1.8-1.8,3.9-3.5,5.4-0.9c5.7,8.8,11.1,16.9,16.4,24.9c6.1,9,15.4,17.2,35.6,15.8c17-1.5,30-14.4,31.3-28.6
		c1.5-26.2-25-44.8-94-50.8c13.2-40,26.1-78.6,36.4-109.3c16.4,0.8,31.5,2.1,46,4c10.7,1.4,20.7,3.9,30.7,5
		C223.1,20.2,183.9,0,140,0C62.7,0,0,62.7,0,140c0,31.1,10.1,59.7,27.3,83c5.9,0.1,10-1.3,10.5-3.8c0.5-2.7,0.1-6.8-0.4-11
		c-2.8-27.5-3.8-57.1-2.7-86.9c-7.1,0.3-13.5,0.6-19.6,1c0.2-5.5,0.5-10.7,1-16.1c6-0.6,12.4-1.1,19.4-1.7c0.3-4.7,0.6-9.3,1.1-13.9
		c3.1-28.3,33-45.7,57.9-52.4c11-2.7,17.8-3.5,23.1-3.8c1.9-0.1,4-0.1,6-0.1c5.2,0,10.4,0.5,13.7,2.7c5.4,4,10.7,8,16.3,12.5
		c0.6,0.8,1.2,1.9-0.2,4c-2.6,3-5.1,5.9-7.7,9c-1.5,1.8-4,1.4-6.1,0.8c-4.4-2.3-8.7-4.4-13-6.5c-7.9-3.5-16-7.1-25-6.7
		c-5.6,0.5-11.1,6.2-11.7,14.1c-0.8,12-1.3,24.3-1.7,37.7c15.7-0.4,31.3-0.7,47.8-0.8c0,3.8,0,7.2,0,11c-5.4,2.4-10.4,4.8-15.8,7.3
		c-11.1,0.1-21.7,0.2-32.3,0.4c-0.5,31.7,0,63.3,1.4,92.5c0.3,4.4,0.5,8.9,1.8,11.9c1.5,3.8,10.3,6.7,29.3,7.7
		c0.1,3.3,0.2,6.4,0.3,9.7c-31-0.9-60.7-3.9-84.6-8.2C61.3,262,98.6,280,140,280c77.3,0,140-62.7,140-140
		C280,110.7,271,83.4,255.5,61"/>
</g>
</svg>
