<?xml version="1.0" encoding="utf-8"?>
<!-- Generator: Adobe Illustrator 25.3.1, SVG Export Plug-In . SVG Version: 6.00 Build 0)  -->
<svg version="1.1" id="Layer_1" xmlns="http://www.w3.org/2000/svg" xmlns:xlink="http://www.w3.org/1999/xlink" x="0px" y="0px"
	 viewBox="0 0 280 280" style="enable-background:new 0 0 280 280;" xml:space="preserve">
<style type="text/css">
	.st0{clip-path:url(#SVGID_2_);fill:#E41E2D;}
	.st1{clip-path:url(#SVGID_2_);fill:#FFFFFF;}
	.st2{clip-path:url(#SVGID_2_);fill:#E2183D;}
	.st3{fill:#999999;}
	.st4{fill:#009639;}
	.st5{fill:#FFFFFF;}
</style>
<g>
	<g>
		<path class="st3" d="M197.4,175.8H195v-3.3h5.6v-1.5h-7.2v6.2h3.9c1.4,0,2.2,0.6,2.2,1.8v1.3c0,1.3-0.9,2-2.5,2
			c-1.5,0-2.4-0.7-2.4-2v-1.2h-1.5v1.1c0,2.1,1.6,3.5,3.9,3.5c2.4,0,4-1.4,4-3.5v-1.2C201,177.1,199.6,175.8,197.4,175.8"/>
		<polygon class="st3" points="191.7,172.6 191.7,171.1 184.1,171.1 184.1,183.5 185.7,183.5 185.7,178.5 191.1,178.5 191.1,177 
			185.7,177 185.7,172.6 		"/>
		<path class="st3" d="M177.8,171.4h0.8V170h-1c-2,0-3.2,1.2-3.2,3.4v1.3h-1v1.4h1v7.5h1.5V176h2.5v-1.4h-2.5v-1.2
			C175.9,172,176.5,171.4,177.8,171.4"/>
		<path class="st3" d="M158.3,182.1c-1.2,0-1.8-0.6-1.8-2V176h2.4v-1.4h-2.4V172h-1.5v2.6h-1.2v1.4h1.2v4.4c0,2.1,1,3.1,3,3.1h1.1
			v-1.4H158.3z"/>
		<path class="st3" d="M152.1,174.5c-1.1,0-2.1,0.4-2.7,1.1l-0.3-0.9h-1v8.9h1.5v-5.6c0-1.5,1.1-2.1,2.3-2.1c0.2,0,0.5,0,0.8,0.1
			v-1.4C152.4,174.5,152.2,174.5,152.1,174.5"/>
		<g>
			<g>
				<path class="st3" d="M168.3,174.4c-2.5,0-3.8,1.4-3.8,3.7v2c0,2.3,1.3,3.7,3.8,3.7c2.5,0,3.8-1.4,3.8-3.7v-2
					C172.1,175.8,170.8,174.4,168.3,174.4z M170.7,180c0,1.6-0.7,2.4-2.3,2.4c-1.6,0-2.3-0.8-2.3-2.4v-1.8c0-1.6,0.7-2.3,2.3-2.3
					c1.6,0,2.3,0.8,2.3,2.3V180z"/>
			</g>
		</g>
		<path class="st3" d="M144.9,174.6l-0.3,0.9c-0.6-0.8-1.6-1.1-2.8-1.1c-2.2,0-3.5,1.1-3.5,3.7v1.8c0,2.6,1.3,3.7,3.5,3.7
			c1.2,0,2.1-0.4,2.8-1.1l0.3,0.9h1v-8.9H144.9z M142.1,182.3c-1.5,0-2.2-0.7-2.2-2.4v-1.7c0-1.7,0.7-2.4,2.2-2.4
			c1.4,0,2.2,0.7,2.3,2.1v2.2C144.4,181.6,143.5,182.3,142.1,182.3"/>
		<path class="st3" d="M133.3,171.1h-4.9v12.4h1.5V179h3.3c2.4,0,3.8-1.2,3.8-3.3v-1.4C137.1,172.3,135.7,171.1,133.3,171.1
			 M135.6,175.7c0,1.2-0.7,1.8-2.2,1.8H130v-5h3.4c1.5,0,2.2,0.6,2.2,1.8V175.7z"/>
	</g>
	<g>
		<path class="st4" d="M0.8,167.7c0.5,0.9,1.3,1.6,2.1,2.1l43.1,24.9l0,0c0.8,0.5,1.8,0.8,2.9,0.8c1,0,2-0.3,2.9-0.8l43.1-24.9
			c0.8-0.5,1.6-1.2,2.1-2.1c0.5-0.9,0.8-1.9,0.8-2.9v-49.7l0,0c0-1-0.2-2-0.8-2.9c-0.5-0.9-1.3-1.6-2.1-2.1L51.6,85.3v0
			c-0.8-0.5-1.8-0.8-2.9-0.8c-1,0-2,0.3-2.9,0.8v0L2.9,110.2c-0.8,0.5-1.6,1.2-2.1,2.1c-0.5,0.9-0.8,1.9-0.8,2.9l0,0v49.7
			C0,165.8,0.2,166.8,0.8,167.7"/>
		<path class="st5" d="M35,158.9c0,3.1-2.5,5.5-5.5,5.5c-3.1,0-5.5-2.5-5.5-5.5l0,0l0-38c0-2.9,2.6-5.4,6.3-5.4
			c2.6,0,5.7,1.1,7.5,3.4l1.7,2l23.1,27.7v-27.5h0c0-3.1,2.5-5.5,5.5-5.5c3.1,0,5.5,2.5,5.5,5.5h0l0,38c0,2.9-2.6,5.4-6.3,5.4
			c-2.6,0-5.7-1.1-7.5-3.4L35,131.4L35,158.9L35,158.9z"/>
	</g>
	<g>
		<g>
			<polygon points="267.2,121.3 259.9,121.3 251.9,134 244.1,121.3 236.5,121.3 247.8,139.7 236.4,158.7 243.6,158.7 251.6,145.9 
				259.4,158.7 267,158.7 255.6,140.2 			"/>
			<polygon points="227.1,121.3 227.1,146.8 212.4,121.3 206.3,121.3 206.3,158.7 212.4,158.7 212.4,133.4 227.1,158.7 233.2,158.7 
				233.2,121.3 			"/>
			<rect x="194.8" y="121.3" width="6.5" height="37.4"/>
			<path d="M189.8,134.6v-2.1c0-7.2-5.3-12-14.7-12c-9.3,0-14.7,4.7-14.7,12v15c0,7.2,5.4,12,14.7,12s14.7-4.7,14.7-12v-8.8h-14.9v6
				h8.4v2.4c0,3.9-3,6.3-8.2,6.3c-5.2,0-8.1-2.4-8.1-6.3v-14.3c0-3.9,3-6.3,8.2-6.3c5.2,0,8.1,2.4,8.1,6.3v1.7H189.8z"/>
			<polygon points="149.2,121.3 149.2,146.8 134.5,121.3 128.4,121.3 128.4,158.7 134.5,158.7 134.5,133.4 149.2,158.7 155.4,158.7 
				155.4,121.3 			"/>
		</g>
		<path d="M274.9,157h0.7v-1.6h0.6c0.4,0,0.6,0,0.8,0.1c0.2,0.1,0.4,0.5,0.4,0.9v0.3l0,0.1c0,0,0,0,0,0.1c0,0,0,0,0,0h0.7l0,0
			c0,0,0-0.1,0-0.2c0-0.1,0-0.2,0-0.3v-0.3c0-0.2-0.1-0.4-0.2-0.6c-0.1-0.2-0.4-0.3-0.7-0.4c0.2,0,0.4-0.1,0.6-0.2
			c0.3-0.2,0.4-0.4,0.4-0.8c0-0.5-0.2-0.8-0.6-1c-0.2-0.1-0.6-0.1-1.1-0.1h-1.4V157z M276.9,154.9c-0.1,0.1-0.4,0.1-0.7,0.1h-0.6
			v-1.5h0.6c0.4,0,0.7,0.1,0.9,0.2c0.2,0.1,0.3,0.3,0.3,0.6C277.3,154.6,277.2,154.8,276.9,154.9 M278.9,152.5
			c-0.7-0.7-1.6-1.1-2.6-1.1c-1,0-1.9,0.4-2.6,1.1c-0.7,0.7-1.1,1.6-1.1,2.6c0,1,0.3,1.9,1.1,2.6c0.7,0.7,1.6,1.1,2.6,1.1
			c1,0,1.9-0.4,2.6-1.1c0.7-0.7,1.1-1.6,1.1-2.6C280,154,279.6,153.2,278.9,152.5 M278.6,152.8c0.6,0.6,0.9,1.4,0.9,2.2
			c0,0.9-0.3,1.6-0.9,2.2c-0.6,0.6-1.4,0.9-2.2,0.9c-0.9,0-1.6-0.3-2.2-0.9c-0.6-0.6-0.9-1.4-0.9-2.2c0-0.9,0.3-1.6,0.9-2.2
			c0.6-0.6,1.4-0.9,2.2-0.9C277.2,151.9,277.9,152.2,278.6,152.8"/>
	</g>
</g>
</svg>
